<svg width="5864" height="5277" viewBox="0 0 5864 5277" fill="none" xmlns="http://www.w3.org/2000/svg">
<circle cx="501.748" cy="501.748" r="501.748" fill="#E5EFF5"/>
<path fill-rule="evenodd" clip-rule="evenodd" d="M232.306 873.158C133.176 787.454 70.4507 660.778 70.4507 519.452C70.4507 261.321 279.707 52.0653 537.837 52.0653C635.803 52.0653 726.73 82.2058 801.849 133.72C719.919 62.8859 613.122 20.0391 496.318 20.0391C238.187 20.0391 28.9312 229.295 28.9312 487.426C28.9312 647.59 109.493 788.938 232.306 873.158Z" fill="#F8FAFC"/>
<path fill-rule="evenodd" clip-rule="evenodd" d="M392.905 965.545C670.012 965.545 894.653 740.905 894.653 463.797C894.653 265.424 779.531 93.9393 612.452 12.5059C836.295 62.9139 1003.5 262.931 1003.5 502C1003.5 779.108 778.855 1003.75 501.747 1003.75C423.013 1003.75 348.514 985.613 282.2 953.292C317.816 961.312 354.866 965.545 392.905 965.545Z" fill="#B5D2E3"/>
<circle cx="501.748" cy="501.748" r="489.748" stroke="black" stroke-width="24"/>
<path d="M120.718 562.284C112.328 563.368 104.619 557.447 103.839 549.024C98.3981 490.3 105.276 431.026 124.097 375.016C142.919 319.006 173.232 267.607 213.031 224.086C218.74 217.843 228.46 217.779 234.492 223.71V223.71C240.524 229.64 240.582 239.318 234.891 245.576C198.337 285.776 170.477 333.164 153.135 384.774C135.792 436.383 129.381 490.979 134.241 545.095C134.997 553.52 129.107 561.199 120.718 562.284V562.284Z" fill="#CCCCCC"/>
<path d="M198.128 394.773C189.006 391.565 184.172 381.549 187.814 372.591C213.932 308.355 257.835 252.886 314.355 212.713C322.237 207.111 333.095 209.515 338.313 217.657V217.657C343.53 225.798 341.128 236.591 333.275 242.233C283.296 278.141 244.36 327.335 220.891 384.225C217.203 393.164 207.251 397.981 198.128 394.773V394.773Z" fill="#F8FAFC"/>
<path d="M836.349 331.189C840.983 329.433 846.171 331.773 847.806 336.45C867.447 392.647 874.227 452.612 867.59 511.861C860.956 571.09 841.094 627.989 809.538 678.315C806.896 682.529 801.291 683.655 797.156 680.892V680.892C793.056 678.152 791.947 672.622 794.563 668.442C824.588 620.472 843.489 566.258 849.81 509.827C856.132 453.394 849.7 396.279 831.043 342.738C829.42 338.081 831.738 332.936 836.349 331.189V331.189Z" fill="#F8FAFC"/>
<circle cx="5049.56" cy="4486.91" r="781.235" fill="#E5EFF5"/>
<path fill-rule="evenodd" clip-rule="evenodd" d="M4637.83 5080.24C4483.49 4946.8 4385.83 4749.56 4385.83 4529.52C4385.83 4127.61 4711.65 3801.79 5113.56 3801.79C5266.11 3801.79 5407.69 3848.72 5524.65 3928.94C5397.08 3818.64 5230.79 3751.92 5048.92 3751.92C4647 3751.92 4321.18 4077.74 4321.18 4479.66C4321.18 4729.03 4446.61 4949.11 4637.83 5080.24Z" fill="#F8FAFC"/>
<path fill-rule="evenodd" clip-rule="evenodd" d="M4877.09 5207.06C5308.55 5207.06 5658.32 4857.29 5658.32 4425.83C5658.32 4118.92 5481.35 3853.35 5223.89 3725.6C5571.44 3804.81 5830.79 4115.77 5830.79 4487.31C5830.79 4918.77 5481.02 5268.54 5049.56 5268.54C4925 5268.54 4807.24 5239.39 4702.75 5187.54C4758.81 5200.32 4817.16 5207.06 4877.09 5207.06Z" fill="#B5D2E3"/>
<circle cx="5049.56" cy="4486.91" r="757.735" stroke="black" stroke-width="47"/>
<path d="M4464.55 4590.44C4451.49 4592.13 4439.49 4582.91 4438.27 4569.79C4429.8 4478.36 4440.51 4386.07 4469.81 4298.86C4499.12 4211.65 4546.32 4131.62 4608.29 4063.85C4617.17 4054.13 4632.31 4054.03 4641.7 4063.27V4063.27C4651.09 4072.5 4651.18 4087.57 4642.32 4097.31C4585.41 4159.91 4542.03 4233.69 4515.03 4314.05C4488.02 4394.41 4478.04 4479.41 4485.61 4563.67C4486.79 4576.79 4477.61 4588.75 4464.55 4590.44V4590.44Z" fill="#CCCCCC"/>
<path d="M4585.08 4329.62C4570.88 4324.63 4563.35 4309.03 4569.02 4295.08C4609.69 4195.07 4678.05 4108.7 4766.05 4046.15C4778.32 4037.43 4795.23 4041.17 4803.35 4053.85V4053.85C4811.48 4066.52 4807.74 4083.33 4795.51 4092.11C4717.69 4148.02 4657.07 4224.62 4620.52 4313.2C4614.78 4327.12 4599.29 4334.62 4585.08 4329.62V4329.62Z" fill="#F8FAFC"/>
<path d="M5568.64 4219.48C5575.86 4216.74 5583.94 4220.39 5586.48 4227.67C5617.06 4315.17 5627.62 4408.54 5617.29 4500.79C5606.96 4593.01 5576.03 4681.6 5526.9 4759.96C5522.78 4766.52 5514.06 4768.28 5507.62 4763.97V4763.97C5501.23 4759.71 5499.51 4751.1 5503.58 4744.59C5550.33 4669.9 5579.76 4585.49 5589.6 4497.62C5599.44 4409.75 5589.43 4320.82 5560.38 4237.46C5557.85 4230.21 5561.46 4222.2 5568.64 4219.48V4219.48Z" fill="#F8FAFC"/>
</svg>
