<svg width="788" height="906" viewBox="0 0 788 906" fill="none" xmlns="http://www.w3.org/2000/svg">
<circle cx="394" cy="399" r="390" fill="#E5EFF5" stroke="black" stroke-width="8"/>
<path fill-rule="evenodd" clip-rule="evenodd" d="M171.427 724.157C87.8705 651.909 35 545.129 35 426C35 208.4 211.4 32 429 32C511.59 32 588.245 57.412 651.573 100.843C582.505 41.1243 492.471 5 394 5C176.4 5 0 181.4 0 399C0 534.01 67.9064 653.159 171.427 724.157Z" fill="#F8FAFC"/>
<path fill-rule="evenodd" clip-rule="evenodd" d="M327 763.198C544.6 763.198 721 586.798 721 369.198C721 221.989 640.268 93.637 520.664 26C676.127 78.7474 788 225.908 788 399.198C788 616.798 611.6 793.198 394 793.198C323.608 793.198 257.528 774.738 200.336 742.396C240.088 755.883 282.69 763.198 327 763.198Z" fill="#B5D2E3"/>
<circle cx="394" cy="399" r="390" stroke="black" stroke-width="8"/>
<path d="M76.0431 440.098C69.4554 440.95 63.4019 436.3 62.789 429.686C58.5166 383.572 63.9171 337.028 78.6969 293.045C93.4768 249.063 117.28 208.702 148.533 174.526C153.015 169.624 160.648 169.574 165.385 174.231C170.122 178.888 170.167 186.488 165.698 191.402C136.994 222.969 115.117 260.181 101.499 300.707C87.8802 341.234 82.8457 384.105 86.6622 426.601C87.2564 433.217 82.6308 439.247 76.0431 440.098Z" fill="#CCCCCC"/>
<path d="M136.831 308.558C129.667 306.039 125.872 298.174 128.732 291.14C149.24 240.698 183.715 197.141 228.098 165.595C234.287 161.196 242.814 163.084 246.911 169.477C251.008 175.87 249.121 184.345 242.955 188.776C203.709 216.973 173.134 255.603 154.705 300.276C151.809 307.295 143.994 311.078 136.831 308.558Z" fill="#F8FAFC"/>
<path d="M675.876 292.174C679.514 290.795 683.589 292.633 684.872 296.306C700.295 340.434 705.619 387.522 700.408 434.048C695.198 480.558 679.601 525.238 654.822 564.757C652.747 568.066 648.346 568.95 645.099 566.78C641.879 564.629 641.008 560.286 643.063 557.004C666.64 519.335 681.483 476.763 686.446 432.451C691.41 388.136 686.359 343.286 671.709 301.243C670.434 297.586 672.255 293.546 675.876 292.174Z" fill="#F8FAFC"/>
<path d="M613 580.5C613 607.18 589.942 632.548 549.831 651.483C510.029 670.27 454.762 682 393.5 682C332.238 682 276.971 670.27 237.169 651.483C197.058 632.548 174 607.18 174 580.5C174 553.82 197.058 528.452 237.169 509.517C276.971 490.73 332.238 479 393.5 479C454.762 479 510.029 490.73 549.831 509.517C589.942 528.452 613 553.82 613 580.5Z" fill="#FFCB53" stroke="black" stroke-width="8"/>
<path d="M564 580.5C564 588.795 559.856 597.091 551.524 605.049C543.182 613.017 530.899 620.377 515.392 626.642C484.397 639.164 441.304 647 393.5 647C345.696 647 302.603 639.164 271.608 626.642C256.101 620.377 243.818 613.017 235.476 605.049C227.144 597.091 223 588.795 223 580.5C223 572.205 227.144 563.909 235.476 555.951C243.818 547.983 256.101 540.623 271.608 534.358C302.603 521.836 345.696 514 393.5 514C441.304 514 484.397 521.836 515.392 534.358C530.899 540.623 543.182 547.983 551.524 555.951C559.856 563.909 564 572.205 564 580.5Z" fill="#996B00" stroke="black" stroke-width="8"/>
<mask id="path-10-inside-1_28_121" fill="white">
<path fill-rule="evenodd" clip-rule="evenodd" d="M617 572C617 630.266 516.936 677.5 393.5 677.5C270.064 677.5 170 630.266 170 572V641V646.5H170.298C176.36 702.21 273.972 746.5 393.5 746.5C513.028 746.5 610.64 702.21 616.702 646.5H617V641V572Z"/>
</mask>
<path fill-rule="evenodd" clip-rule="evenodd" d="M617 572C617 630.266 516.936 677.5 393.5 677.5C270.064 677.5 170 630.266 170 572V641V646.5H170.298C176.36 702.21 273.972 746.5 393.5 746.5C513.028 746.5 610.64 702.21 616.702 646.5H617V641V572Z" fill="#FFCB53"/>
<path d="M170 646.5H162V654.5H170V646.5ZM170.298 646.5L178.252 645.635L177.475 638.5H170.298V646.5ZM616.702 646.5V638.5H609.525L608.748 645.635L616.702 646.5ZM617 646.5V654.5H625V646.5H617ZM393.5 685.5C456.129 685.5 513.22 673.534 554.953 653.834C596.067 634.427 625 606.039 625 572H609C609 596.227 587.901 620.589 548.123 639.365C508.965 657.849 454.307 669.5 393.5 669.5V685.5ZM162 572C162 606.039 190.933 634.427 232.047 653.834C273.78 673.534 330.871 685.5 393.5 685.5V669.5C332.693 669.5 278.035 657.849 238.877 639.365C199.099 620.589 178 596.227 178 572H162ZM178 641V572H162V641H178ZM178 646.5V641H162V646.5H178ZM170.298 638.5H170V654.5H170.298V638.5ZM393.5 738.5C334.629 738.5 281.503 727.578 242.631 710.095C203.189 692.356 180.801 669.063 178.252 645.635L162.345 647.365C165.858 679.647 195.306 706.354 236.068 724.687C277.399 743.276 332.844 754.5 393.5 754.5V738.5ZM608.748 645.635C606.199 669.063 583.811 692.356 544.369 710.095C505.497 727.578 452.371 738.5 393.5 738.5V754.5C454.156 754.5 509.601 743.276 550.932 724.687C591.694 706.354 621.142 679.647 624.655 647.365L608.748 645.635ZM617 638.5H616.702V654.5H617V638.5ZM609 641V646.5H625V641H609ZM609 572V641H625V572H609Z" fill="black" mask="url(#path-10-inside-1_28_121)"/>
<mask id="path-12-inside-2_28_121" fill="white">
<path fill-rule="evenodd" clip-rule="evenodd" d="M177.067 658.923C177.023 660.943 177 662.968 177 665C177 798.101 273.706 906 393 906C512.294 906 609 798.101 609 665C609 663.542 608.988 662.086 608.965 660.634C582.883 705.242 496.296 738 393.5 738C289.394 738 201.913 704.401 177.067 658.923Z"/>
</mask>
<path fill-rule="evenodd" clip-rule="evenodd" d="M177.067 658.923C177.023 660.943 177 662.968 177 665C177 798.101 273.706 906 393 906C512.294 906 609 798.101 609 665C609 663.542 608.988 662.086 608.965 660.634C582.883 705.242 496.296 738 393.5 738C289.394 738 201.913 704.401 177.067 658.923Z" fill="#FFCB53"/>
<path d="M177.067 658.923L184.088 655.087L169.733 628.812L169.069 658.745L177.067 658.923ZM608.965 660.634L616.964 660.506L616.508 631.884L602.059 656.596L608.965 660.634ZM185 665C185 663.027 185.022 661.061 185.065 659.1L169.069 658.745C169.023 660.824 169 662.909 169 665H185ZM393 898C278.926 898 185 794.529 185 665H169C169 801.672 268.487 914 393 914V898ZM601 665C601 794.529 507.074 898 393 898V914C517.513 914 617 801.672 617 665H601ZM600.966 660.761C600.989 662.171 601 663.584 601 665H617C617 663.499 616.988 662.001 616.964 660.506L600.966 660.761ZM602.059 656.596C590.394 676.547 564.295 695.026 527.26 708.529C490.502 721.93 444.101 730 393.5 730V746C445.695 746 493.985 737.691 532.74 723.561C571.218 709.532 601.454 689.329 615.871 664.672L602.059 656.596ZM393.5 730C342.252 730 295.316 721.723 258.342 708.015C221.071 694.197 195.149 675.334 184.088 655.087L170.047 662.758C183.831 687.99 214.073 708.666 252.78 723.017C291.785 737.478 340.642 746 393.5 746V730Z" fill="black" mask="url(#path-12-inside-2_28_121)"/>
<path d="M190 731C215.667 746.833 293.5 782 410 782C526.5 782 570.667 746.833 596.5 731" stroke="black" stroke-width="8" stroke-linecap="round"/>
<path d="M215 793C240.667 808.833 321 839 410 839C499 839 545.667 808.833 571.5 793" stroke="black" stroke-width="8" stroke-linecap="round"/>
<path d="M276 862C290.775 870.072 335.579 888 402.642 888C469.705 888 495.129 870.072 510 862" stroke="black" stroke-width="8" stroke-linecap="round"/>
<mask id="mask0_28_121" style="mask-type:alpha" maskUnits="userSpaceOnUse" x="94" y="0" width="600" height="643">
<path fill-rule="evenodd" clip-rule="evenodd" d="M216.018 572.612L221.018 580L225.991 596.05C249.982 623.406 314.586 643 390.518 643C458.38 643 517.194 627.35 546.054 604.495C546.938 594.749 547.85 583.969 548.729 573.582C550.756 549.637 552.606 527.782 553.518 525.5C555.118 521.5 647.185 408.5 693.018 352.5C692.352 270 690.518 103.7 688.518 98.5C686.018 92 530.518 3.5 528.018 2.5C526.018 1.7 339.852 0.833333 247.018 0.5C196.352 90.1667 94.8182 270 94.0182 272C93.2182 274 119.018 390.5 132.018 448.5L216.018 572.612ZM216.018 572.5C216.018 572.538 216.018 572.575 216.018 572.612V572.5ZM216.018 572.5V572H216.022C216.02 572.167 216.018 572.333 216.018 572.5Z" fill="#D9D9D9"/>
</mask>
<g mask="url(#mask0_28_121)">
<mask id="path-18-inside-3_28_121" fill="white">
<path fill-rule="evenodd" clip-rule="evenodd" d="M201.018 280C172.299 280 149.018 303.281 149.018 332V435C149.018 435.659 149.03 436.315 149.055 436.968C148.858 446.15 151.091 455.5 156.018 464.033L240.518 610.392C254.878 635.263 286.68 643.784 311.552 629.425C336.423 615.066 344.944 583.263 330.585 558.392L253.018 424.042V332C253.018 303.281 229.737 280 201.018 280Z"/>
</mask>
<path fill-rule="evenodd" clip-rule="evenodd" d="M201.018 280C172.299 280 149.018 303.281 149.018 332V435C149.018 435.659 149.03 436.315 149.055 436.968C148.858 446.15 151.091 455.5 156.018 464.033L240.518 610.392C254.878 635.263 286.68 643.784 311.552 629.425C336.423 615.066 344.944 583.263 330.585 558.392L253.018 424.042V332C253.018 303.281 229.737 280 201.018 280Z" fill="#B4D586"/>
<path d="M149.055 436.968L157.053 437.14L157.058 436.905L157.049 436.671L149.055 436.968ZM156.018 464.033L162.946 460.033H162.946L156.018 464.033ZM240.518 610.392L233.59 614.392L240.518 610.392ZM330.585 558.392L323.657 562.392L330.585 558.392ZM253.018 424.042H245.018V426.186L246.09 428.042L253.018 424.042ZM157.018 332C157.018 307.699 176.718 288 201.018 288V272C167.881 272 141.018 298.863 141.018 332H157.018ZM157.018 435V332H141.018V435H157.018ZM157.049 436.671C157.029 436.117 157.018 435.56 157.018 435H141.018C141.018 435.758 141.032 436.514 141.06 437.266L157.049 436.671ZM162.946 460.033C158.771 452.801 156.887 444.9 157.053 437.14L141.057 436.797C140.829 447.399 143.411 458.198 149.09 468.033L162.946 460.033ZM247.446 606.392L162.946 460.033L149.09 468.033L233.59 614.392L247.446 606.392ZM307.552 622.497C286.507 634.647 259.597 627.436 247.446 606.392L233.59 614.392C250.159 643.089 286.854 652.922 315.552 636.353L307.552 622.497ZM323.657 562.392C335.807 583.436 328.596 610.346 307.552 622.497L315.552 636.353C344.249 619.785 354.082 583.089 337.513 554.392L323.657 562.392ZM246.09 428.042L323.657 562.392L337.513 554.392L259.946 420.042L246.09 428.042ZM245.018 332V424.042H261.018V332H245.018ZM201.018 288C225.319 288 245.018 307.699 245.018 332H261.018C261.018 298.863 234.155 272 201.018 272V288Z" fill="black" mask="url(#path-18-inside-3_28_121)"/>
<mask id="path-20-inside-4_28_121" fill="white">
<path fill-rule="evenodd" clip-rule="evenodd" d="M598.018 165C569.299 165 546.018 188.281 546.018 217V321.04L441.788 425.27C421.48 445.578 421.48 478.502 441.788 498.81C462.095 519.117 495.02 519.117 515.327 498.81L634.828 379.309C645.515 368.622 650.577 354.441 650.016 340.443C650.018 340.296 650.018 340.148 650.018 340V217C650.018 188.281 626.737 165 598.018 165Z"/>
</mask>
<path fill-rule="evenodd" clip-rule="evenodd" d="M598.018 165C569.299 165 546.018 188.281 546.018 217V321.04L441.788 425.27C421.48 445.578 421.48 478.502 441.788 498.81C462.095 519.117 495.02 519.117 515.327 498.81L634.828 379.309C645.515 368.622 650.577 354.441 650.016 340.443C650.018 340.296 650.018 340.148 650.018 340V217C650.018 188.281 626.737 165 598.018 165Z" fill="#B4D586"/>
<path d="M546.018 321.04L551.675 326.697L554.018 324.354V321.04H546.018ZM441.788 425.27L447.445 430.927L441.788 425.27ZM441.788 498.81L447.445 493.153H447.445L441.788 498.81ZM515.327 498.81L509.67 493.153L515.327 498.81ZM650.016 340.443L642.017 340.376L642.015 340.57L642.023 340.764L650.016 340.443ZM554.018 217C554.018 192.699 573.718 173 598.018 173V157C564.881 157 538.018 183.863 538.018 217H554.018ZM554.018 321.04V217H538.018V321.04H554.018ZM447.445 430.927L551.675 326.697L540.361 315.383L436.131 419.614L447.445 430.927ZM447.445 493.153C430.262 475.97 430.262 448.11 447.445 430.927L436.131 419.614C412.699 443.045 412.699 481.035 436.131 504.466L447.445 493.153ZM509.67 493.153C492.487 510.336 464.628 510.336 447.445 493.153L436.131 504.466C459.562 527.898 497.552 527.898 520.984 504.466L509.67 493.153ZM629.171 373.652L509.67 493.153L520.984 504.466L640.485 384.965L629.171 373.652ZM642.023 340.764C642.498 352.624 638.214 364.609 629.171 373.652L640.485 384.965C652.815 372.635 658.657 356.258 658.01 340.123L642.023 340.764ZM642.018 340C642.018 340.126 642.018 340.251 642.017 340.376L658.016 340.51C658.017 340.34 658.018 340.17 658.018 340H642.018ZM642.018 217V340H658.018V217H642.018ZM598.018 173C622.319 173 642.018 192.699 642.018 217H658.018C658.018 183.863 631.155 157 598.018 157V173Z" fill="black" mask="url(#path-20-inside-4_28_121)"/>
<rect x="271.018" y="70" width="257" height="686" rx="128.5" fill="#B4D586" stroke="black" stroke-width="8"/>
<line x1="390.018" y1="237" x2="390.018" y2="656" stroke="black" stroke-opacity="0.2" stroke-width="8" stroke-linecap="round"/>
<line x1="440.018" y1="223" x2="440.018" y2="421" stroke="black" stroke-opacity="0.2" stroke-width="8" stroke-linecap="round"/>
<line x1="451.018" y1="537" x2="451.018" y2="649" stroke="black" stroke-opacity="0.2" stroke-width="8" stroke-linecap="round"/>
<line x1="497.018" y1="121" x2="497.018" y2="200" stroke="black" stroke-opacity="0.2" stroke-width="8" stroke-linecap="round"/>
<line x1="372.018" y1="258" x2="372.018" y2="315" stroke="black" stroke-opacity="0.2" stroke-width="8" stroke-linecap="round"/>
<line x1="423.018" y1="480" x2="423.018" y2="657" stroke="black" stroke-opacity="0.2" stroke-width="8" stroke-linecap="round"/>
<line x1="497.018" y1="326" x2="497.018" y2="605" stroke="black" stroke-opacity="0.2" stroke-width="8" stroke-linecap="round"/>
<line x1="343.018" y1="446" x2="343.018" y2="653" stroke="black" stroke-opacity="0.2" stroke-width="8" stroke-linecap="round"/>
<line x1="343.018" y1="208" x2="343.018" y2="286" stroke="black" stroke-opacity="0.2" stroke-width="8" stroke-linecap="round"/>
<line x1="304.018" y1="229" x2="304.018" y2="438" stroke="black" stroke-opacity="0.2" stroke-width="8" stroke-linecap="round"/>
<line x1="304.018" y1="129" x2="304.018" y2="165" stroke="black" stroke-opacity="0.2" stroke-width="8" stroke-linecap="round"/>
<line x1="381.018" y1="115" x2="381.018" y2="216" stroke="black" stroke-opacity="0.2" stroke-width="8" stroke-linecap="round"/>
<line x1="386.018" y1="229" x2="386.018" y2="652" stroke="#485536" stroke-width="4" stroke-linecap="round"/>
<line x1="436.018" y1="215" x2="436.018" y2="417" stroke="#485536" stroke-width="4" stroke-linecap="round"/>
<line x1="447.018" y1="529" x2="447.018" y2="645" stroke="#485536" stroke-width="4" stroke-linecap="round"/>
<line x1="493.018" y1="113" x2="493.018" y2="196" stroke="#485536" stroke-width="4" stroke-linecap="round"/>
<line x1="368.018" y1="250" x2="368.018" y2="311" stroke="#485536" stroke-width="4" stroke-linecap="round"/>
<line x1="419.018" y1="472" x2="419.018" y2="653" stroke="#485536" stroke-width="4" stroke-linecap="round"/>
<line x1="493.018" y1="318" x2="493.018" y2="601" stroke="#485536" stroke-width="4" stroke-linecap="round"/>
<line x1="339.018" y1="438" x2="339.018" y2="649" stroke="#485536" stroke-width="4" stroke-linecap="round"/>
<line x1="339.018" y1="200" x2="339.018" y2="282" stroke="#485536" stroke-width="4" stroke-linecap="round"/>
<line x1="300.018" y1="221" x2="300.018" y2="434" stroke="#485536" stroke-width="4" stroke-linecap="round"/>
<line x1="300.018" y1="121" x2="300.018" y2="161" stroke="#485536" stroke-width="4" stroke-linecap="round"/>
<line x1="377.018" y1="107" x2="377.018" y2="212" stroke="#485536" stroke-width="4" stroke-linecap="round"/>
<line x1="180.018" y1="302" x2="180.018" y2="410" stroke="black" stroke-opacity="0.2" stroke-width="8" stroke-linecap="round"/>
<line x1="193.018" y1="398" x2="193.018" y2="469" stroke="black" stroke-opacity="0.2" stroke-width="8" stroke-linecap="round"/>
<line x1="224.018" y1="302" x2="224.018" y2="374" stroke="black" stroke-opacity="0.2" stroke-width="8" stroke-linecap="round"/>
<line x1="238.018" y1="513" x2="238.018" y2="602" stroke="black" stroke-opacity="0.2" stroke-width="8" stroke-linecap="round"/>
<line x1="176.018" y1="292" x2="176.018" y2="404" stroke="#485536" stroke-width="4" stroke-linecap="round"/>
<line x1="189.018" y1="388" x2="189.018" y2="463" stroke="#485536" stroke-width="4" stroke-linecap="round"/>
<line x1="220.018" y1="292" x2="220.018" y2="368" stroke="#485536" stroke-width="4" stroke-linecap="round"/>
<line x1="234.018" y1="503" x2="234.018" y2="596" stroke="#485536" stroke-width="4" stroke-linecap="round"/>
<line x1="617.018" y1="182" x2="617.018" y2="193" stroke="black" stroke-opacity="0.2" stroke-width="8" stroke-linecap="round"/>
<line x1="611.018" y1="188" x2="611.018" y2="208" stroke="black" stroke-opacity="0.2" stroke-width="8" stroke-linecap="round"/>
<line x1="625.018" y1="195" x2="625.018" y2="219" stroke="black" stroke-opacity="0.2" stroke-width="8" stroke-linecap="round"/>
<line x1="581.018" y1="243" x2="581.018" y2="300" stroke="black" stroke-opacity="0.2" stroke-width="8" stroke-linecap="round"/>
<line x1="548.018" y1="376" x2="548.018" y2="459" stroke="black" stroke-opacity="0.2" stroke-width="8" stroke-linecap="round"/>
<line x1="622.018" y1="332" x2="622.018" y2="383" stroke="black" stroke-opacity="0.2" stroke-width="8" stroke-linecap="round"/>
<line x1="613.018" y1="174" x2="613.018" y2="189" stroke="#485536" stroke-width="4" stroke-linecap="round"/>
<line x1="607.018" y1="180" x2="607.018" y2="204" stroke="#485536" stroke-width="4" stroke-linecap="round"/>
<line x1="621.018" y1="187" x2="621.018" y2="215" stroke="#485536" stroke-width="4" stroke-linecap="round"/>
<line x1="577.018" y1="235" x2="577.018" y2="296" stroke="#485536" stroke-width="4" stroke-linecap="round"/>
<line x1="544.018" y1="368" x2="544.018" y2="463" stroke="#485536" stroke-width="4" stroke-linecap="round"/>
<line x1="618.018" y1="324" x2="618.018" y2="387" stroke="#485536" stroke-width="4" stroke-linecap="round"/>
<rect x="310.018" y="266" width="40" height="127" rx="20" fill="black"/>
<rect x="448.018" y="266" width="40" height="127" rx="20" fill="black"/>
<path d="M457.812 420.312C464.07 421.303 468.429 427.228 466.443 433.246C462.398 445.508 455.058 456.509 445.129 464.989C432.274 475.968 415.924 482 399.018 482C382.113 482 365.762 475.968 352.907 464.989C342.979 456.509 335.639 445.508 331.593 433.246C329.608 427.228 333.966 421.303 340.225 420.312C346.483 419.321 352.238 423.682 354.681 429.529C357.566 436.43 362.043 442.614 367.81 447.54C376.511 454.97 387.577 459.053 399.018 459.053C410.46 459.053 421.526 454.97 430.226 447.54C435.994 442.614 440.471 436.43 443.355 429.529C445.799 423.682 451.553 419.321 457.812 420.312Z" fill="black"/>
<path fill-rule="evenodd" clip-rule="evenodd" d="M551.675 326.697L554.018 324.354V321.04V217C554.018 192.699 573.718 173 598.018 173C622.319 173 642.018 192.699 642.018 217V340C642.018 340.126 642.018 340.251 642.017 340.376L642.015 340.57L642.023 340.764C642.498 352.624 638.214 364.609 629.171 373.652L529.018 473.804V485.118L634.828 379.309C645.515 368.622 650.577 354.441 650.016 340.443C650.018 340.296 650.018 340.148 650.018 340V217C650.018 188.281 626.737 165 598.018 165C569.299 165 546.018 188.281 546.018 217V321.04L529.018 338.04V349.354L551.675 326.697Z" fill="black"/>
<path fill-rule="evenodd" clip-rule="evenodd" d="M157.053 437.14L157.058 436.905L157.049 436.671C157.029 436.117 157.018 435.56 157.018 435V332C157.018 307.699 176.718 288 201.018 288C225.319 288 245.018 307.699 245.018 332V424.042V426.186L246.09 428.042L270.018 469.487V453.487L253.018 424.042V332C253.018 303.281 229.737 280 201.018 280C172.299 280 149.018 303.281 149.018 332V435C149.018 435.659 149.03 436.315 149.055 436.968C148.858 446.15 151.091 455.5 156.018 464.033L240.518 610.392C247.309 622.154 258.002 630.26 270.018 634.018V625.56C260.83 622.099 252.738 615.558 247.446 606.392L162.946 460.033C158.771 452.801 156.887 444.9 157.053 437.14Z" fill="black"/>
<rect x="271.018" y="70" width="257" height="686" rx="128.5" stroke="black" stroke-width="8"/>
</g>
<path d="M206 482.5C185.6 451.3 169.833 421.833 164.5 411L162.5 453L259 617L278 625.5V600C266.667 579.5 226.4 513.7 206 482.5Z" fill="black" fill-opacity="0.1"/>
<path d="M524.5 535.5V502.5L529.5 499L565.5 513.5L602.5 541.5L617.5 573.5V645L610 681C609 708.333 595.3 777.1 548.5 833.5C501.7 889.9 429 901.333 398.5 900C530.1 852.4 567.333 750.833 569.5 706C513.1 742.4 401 743.167 352 739C453 741 513 713 538.5 696C558.9 682.4 562.333 661 561.5 652C529.1 668 451 678 416 681C585 635 569.5 595 569.5 577C569.5 562.6 539.5 543.333 524.5 535.5Z" fill="black" fill-opacity="0.1"/>
<path d="M519 225C519 122.6 433 82 390 74.5C410 69 445 70 487.5 97C521.5 118.6 533.667 173 535.5 197.5V619L519 624V225Z" fill="black" fill-opacity="0.1"/>
<path d="M601 172.004C602.986 171.882 605.264 171.901 607.706 172.245C642.285 174.8 652.372 197.047 653 208.505V322.505C653 359.305 645.333 370.838 641.5 372.005L537.5 476.005V438.005L614.5 361.005C634.9 340.605 641 320.838 641.5 313.505V246.5C641.5 187.139 621.86 174.239 607.706 172.245C605.566 172.087 603.332 172.004 601 172.004Z" fill="black" fill-opacity="0.1"/>
<path d="M244 379.501C244 302.701 219 285.501 206.5 286.501C238.5 281.701 252.833 307.834 256 321.5V424.5L265 438.5V450L244 414.5V379.501Z" fill="black" fill-opacity="0.1"/>
<path d="M200.858 295.928C201.104 296.777 200.763 297.687 200.019 298.165C199.275 298.644 198.306 298.577 197.635 298.001C185.074 287.228 172.002 272.496 164.028 259.668C160.062 253.287 157.231 247.179 156.483 242.164C156.106 239.64 156.23 237.217 157.173 235.144C158.146 233.005 159.895 231.454 162.32 230.578C164.534 229.778 166.754 230.127 168.797 231.163C170.797 232.176 172.705 233.876 174.509 235.962C178.12 240.137 181.679 246.294 184.986 253.179C191.618 266.987 197.482 284.249 200.858 295.928Z" fill="#C41C54" stroke="black" stroke-width="4" stroke-linejoin="round"/>
<path d="M201.478 296.472C201.293 297.273 200.637 297.88 199.824 298.001C199.011 298.122 198.207 297.733 197.796 297.021C191.904 286.795 184.305 271.193 180.748 257.673C178.979 250.95 178.137 244.481 179.2 239.382C179.739 236.799 180.787 234.469 182.545 232.66C184.318 230.835 186.68 229.677 189.595 229.233C192.51 228.789 195.108 229.192 197.338 230.41C199.548 231.618 201.229 233.536 202.496 235.846C204.996 240.405 206.071 246.839 206.335 253.79C206.865 267.771 204.137 284.944 201.478 296.472Z" fill="#D21E5A" stroke="black" stroke-width="4" stroke-linejoin="round"/>
<path d="M200.678 295.438C201.048 296.147 200.961 297.009 200.456 297.629C199.95 298.249 199.124 298.508 198.355 298.288C193.283 296.837 185.188 294.045 177.302 290.361C169.489 286.711 161.577 282.048 157.154 276.752C151.921 270.485 148.413 264.702 146.845 259.773C145.287 254.878 145.519 250.318 148.643 247.264C150.143 245.797 152.466 244.537 155.582 244.494C158.674 244.452 162.349 245.61 166.605 248.586C175.057 254.495 186.288 267.913 200.678 295.438Z" fill="#DB1F5E" stroke="black" stroke-width="4" stroke-linejoin="round"/>
<path d="M200.245 298.391C199.738 298.782 199.076 298.906 198.462 298.727C197.849 298.547 197.358 298.085 197.142 297.484C195.15 291.939 193.05 283.132 192.323 274.046C191.602 265.026 192.199 255.357 195.942 248.343C199.578 241.531 203.934 236.625 208.742 234.697C211.198 233.713 213.756 233.517 216.289 234.246C218.799 234.969 221.141 236.558 223.28 238.904C225.737 241.6 226.688 245.766 226.634 250.351C226.579 255.006 225.489 260.443 223.471 266.072C219.437 277.324 211.581 289.655 200.245 298.391Z" fill="#E12E6A" stroke="black" stroke-width="4" stroke-linejoin="round"/>
<circle cx="2.13433" cy="2.13433" r="2.13433" transform="matrix(-0.965926 0.258819 0.258819 0.965926 190.625 257.443)" fill="#714457"/>
<circle cx="2.13433" cy="2.13433" r="2.13433" transform="matrix(-0.965926 0.258819 0.258819 0.965926 193.289 261.886)" fill="#714457"/>
<circle cx="2.13433" cy="2.13433" r="2.13433" transform="matrix(-0.965926 0.258819 0.258819 0.965926 191.645 266.745)" fill="#714457"/>
<circle cx="1.7786" cy="1.7786" r="1.7786" transform="matrix(-0.965926 0.258819 0.258819 0.965926 187.423 261.984)" fill="#714457"/>
<circle cx="2.13433" cy="2.13433" r="2.13433" transform="matrix(-0.965926 0.258819 0.258819 0.965926 181.876 260.524)" fill="#714457"/>
<circle cx="2.13433" cy="2.13433" r="2.13433" transform="matrix(-0.965926 0.258819 0.258819 0.965926 185.276 267.716)" fill="#714457"/>
<circle cx="1.7786" cy="1.7786" r="1.7786" transform="matrix(-0.965926 0.258819 0.258819 0.965926 191.056 272.795)" fill="#714457"/>
<circle cx="1.42288" cy="1.42288" r="1.42288" transform="matrix(-0.965926 0.258819 0.258819 0.965926 194.308 271.188)" fill="#714457"/>
<circle cx="1.42288" cy="1.42288" r="1.42288" transform="matrix(-0.965926 0.258819 0.258819 0.965926 193.719 277.237)" fill="#714457"/>
</svg>
