<svg width="491" height="694" viewBox="0 0 491 694" fill="none" xmlns="http://www.w3.org/2000/svg">
<mask id="path-1-inside-1_21_374" fill="white">
<path fill-rule="evenodd" clip-rule="evenodd" d="M52 214C23.2812 214 0 237.281 0 266V369C0 369.659 0.0122617 370.315 0.0365694 370.968C-0.160189 380.15 2.07301 389.5 7 398.033L91.5 544.392C105.859 569.263 137.662 577.784 162.533 563.425C187.405 549.066 195.926 517.263 181.567 492.392L104 358.042V266C104 237.281 80.7188 214 52 214Z"/>
</mask>
<path fill-rule="evenodd" clip-rule="evenodd" d="M52 214C23.2812 214 0 237.281 0 266V369C0 369.659 0.0122617 370.315 0.0365694 370.968C-0.160189 380.15 2.07301 389.5 7 398.033L91.5 544.392C105.859 569.263 137.662 577.784 162.533 563.425C187.405 549.066 195.926 517.263 181.567 492.392L104 358.042V266C104 237.281 80.7188 214 52 214Z" fill="#B4D586"/>
<path d="M0.0365694 370.968L8.03473 371.14L8.03976 370.905L8.03103 370.671L0.0365694 370.968ZM7 398.033L13.9282 394.033L13.9282 394.033L7 398.033ZM91.5 544.392L84.5718 548.392L84.5718 548.392L91.5 544.392ZM181.567 492.392L174.638 496.392L174.638 496.392L181.567 492.392ZM104 358.042H96V360.186L97.0718 362.042L104 358.042ZM8 266C8 241.699 27.6995 222 52 222V206C18.8629 206 -8 232.863 -8 266H8ZM8 369V266H-8V369H8ZM8.03103 370.671C8.01042 370.117 8 369.56 8 369H-8C-8 369.758 -7.98589 370.514 -7.9579 371.266L8.03103 370.671ZM13.9282 394.033C9.75283 386.801 7.86842 378.9 8.03473 371.14L-7.96159 370.797C-8.1888 381.399 -5.60681 392.198 0.0717978 402.033L13.9282 394.033ZM98.4282 540.392L13.9282 394.033L0.0717954 402.033L84.5718 548.392L98.4282 540.392ZM158.533 556.497C137.488 568.647 110.578 561.436 98.4282 540.392L84.5718 548.392C101.14 577.089 137.836 586.922 166.533 570.353L158.533 556.497ZM174.638 496.392C186.789 517.436 179.578 544.346 158.533 556.497L166.533 570.353C195.231 553.785 205.063 517.089 188.495 488.392L174.638 496.392ZM97.0718 362.042L174.638 496.392L188.495 488.392L110.928 354.042L97.0718 362.042ZM96 266V358.042H112V266H96ZM52 222C76.3005 222 96 241.699 96 266H112C112 232.863 85.1371 206 52 206V222Z" fill="black" mask="url(#path-1-inside-1_21_374)"/>
<mask id="path-3-inside-2_21_374" fill="white">
<path fill-rule="evenodd" clip-rule="evenodd" d="M438 99C409.281 99 386 122.281 386 151V255.04L281.77 359.27C261.462 379.578 261.462 412.502 281.77 432.81C302.077 453.117 335.001 453.117 355.309 432.81L474.81 313.309C485.496 302.622 490.559 288.441 489.998 274.443C489.999 274.296 490 274.148 490 274V151C490 122.281 466.719 99 438 99Z"/>
</mask>
<path fill-rule="evenodd" clip-rule="evenodd" d="M438 99C409.281 99 386 122.281 386 151V255.04L281.77 359.27C261.462 379.578 261.462 412.502 281.77 432.81C302.077 453.117 335.001 453.117 355.309 432.81L474.81 313.309C485.496 302.622 490.559 288.441 489.998 274.443C489.999 274.296 490 274.148 490 274V151C490 122.281 466.719 99 438 99Z" fill="#B4D586"/>
<path d="M386 255.04L391.657 260.697L394 258.354V255.04H386ZM281.77 359.27L287.426 364.927L287.426 364.927L281.77 359.27ZM281.77 432.81L287.426 427.153L287.426 427.153L281.77 432.81ZM355.309 432.81L349.652 427.153L349.652 427.153L355.309 432.81ZM489.998 274.443L481.998 274.376L481.997 274.57L482.005 274.764L489.998 274.443ZM394 151C394 126.699 413.699 107 438 107V91C404.863 91 378 117.863 378 151H394ZM394 255.04V151H378V255.04H394ZM287.426 364.927L391.657 260.697L380.343 249.383L276.113 353.614L287.426 364.927ZM287.426 427.153C270.243 409.97 270.243 382.11 287.426 364.927L276.113 353.614C252.681 377.045 252.681 415.035 276.113 438.466L287.426 427.153ZM349.652 427.153C332.469 444.336 304.609 444.336 287.426 427.153L276.113 438.466C299.544 461.898 337.534 461.898 360.965 438.466L349.652 427.153ZM469.153 307.652L349.652 427.153L360.965 438.466L480.467 318.965L469.153 307.652ZM482.005 274.764C482.48 286.624 478.195 298.609 469.153 307.652L480.467 318.965C492.797 306.635 498.638 290.258 497.992 274.123L482.005 274.764ZM482 274C482 274.126 481.999 274.251 481.998 274.376L497.998 274.51C497.999 274.34 498 274.17 498 274H482ZM482 151V274H498V151H482ZM438 107C462.3 107 482 126.699 482 151H498C498 117.863 471.137 91 438 91V107Z" fill="black" mask="url(#path-3-inside-2_21_374)"/>
<rect x="111" y="4" width="257" height="686" rx="128.5" fill="#B4D586" stroke="black" stroke-width="8"/>
<path fill-rule="evenodd" clip-rule="evenodd" d="M391.657 260.697L394 258.354V255.04V151C394 126.699 413.699 107 438 107C462.301 107 482 126.699 482 151V274C482 274.126 481.999 274.251 481.998 274.376L481.997 274.57L482.005 274.764C482.48 286.624 478.195 298.609 469.153 307.652L369 407.804V419.118L474.81 313.309C485.496 302.622 490.559 288.441 489.998 274.443C489.999 274.296 490 274.148 490 274V151C490 122.281 466.719 99 438 99C409.281 99 386 122.281 386 151V255.04L369 272.04V283.354L391.657 260.697Z" fill="black"/>
<path fill-rule="evenodd" clip-rule="evenodd" d="M8.03473 371.14L8.03976 370.905L8.03103 370.671C8.01042 370.117 8 369.56 8 369V266C8 241.699 27.6995 222 52 222C76.3005 222 96 241.699 96 266V358.042V360.186L97.0718 362.042L113 389.631V373.631L104 358.042V266C104 237.281 80.7188 214 52 214C23.2812 214 0 237.281 0 266V369C0 369.659 0.0122617 370.315 0.0365694 370.968C-0.160189 380.15 2.07301 389.5 7 398.033L91.5 544.392C96.7392 553.466 104.3 560.364 113 564.768V555.58C107.167 551.896 102.117 546.781 98.4282 540.392L13.9282 394.033C9.75283 386.801 7.86842 378.9 8.03473 371.14Z" fill="black"/>
<rect x="111" y="4" width="257" height="686" rx="128.5" stroke="black" stroke-width="8"/>
</svg>
